<?xml version="1.0" standalone="no"?>
<!DOCTYPE svg PUBLIC "-//W3C//DTD SVG 20010904//EN"
 "http://www.w3.org/TR/2001/REC-SVG-20010904/DTD/svg10.dtd">
<svg version="1.0" xmlns="http://www.w3.org/2000/svg"
 width="700.000000pt" height="700.000000pt" viewBox="0 0 700.000000 700.000000"
 preserveAspectRatio="xMidYMid meet">
<metadata>
Created by potrace 1.11, written by Peter Selinger 2001-2013
</metadata>
<g transform="translate(0.000000,700.000000) scale(0.100000,-0.100000)"
fill="#000000" stroke="none">
<path d="M1555 6060 c-232 -31 -442 -183 -545 -395 -82 -169 -75 31 -75 -2160
l0 -1950 23 -78 c78 -271 283 -467 552 -529 80 -19 3900 -19 3980 0 269 62
474 258 552 529 l23 78 0 1950 c0 2191 7 1991 -75 2160 -69 143 -180 253 -325
325 -167 81 35 74 -2125 76 -1059 1 -1952 -2 -1985 -6z m3658 -462 c218 -54
368 -206 397 -403 7 -47 10 -618 8 -1750 -3 -1573 -4 -1684 -21 -1739 -49
-164 -144 -258 -308 -303 -60 -17 -171 -18 -1789 -18 -1618 0 -1729 1 -1789
18 -166 46 -262 142 -308 308 -17 60 -18 171 -18 1789 0 1603 1 1729 17 1787
37 134 102 220 208 273 120 61 56 59 1875 56 1512 -2 1666 -3 1728 -18z"/>
<path d="M1880 4415 l0 -705 705 0 705 0 0 705 0 705 -705 0 -705 0 0 -705z"/>
<path d="M3710 4415 l0 -705 705 0 705 0 0 705 0 705 -705 0 -705 0 0 -705z"/>
<path d="M1880 2585 l0 -705 705 0 705 0 0 705 0 705 -705 0 -705 0 0 -705z"/>
</g>
</svg>
